<mxfile host="app.diagrams.net" modified="2023-12-16T19:43:54.577Z" agent="Mozilla/5.0 (Windows NT 10.0; Win64; x64) AppleWebKit/537.36 (KHTML, like Gecko) Chrome/120.0.0.0 Safari/537.36" etag="AAQp9DyZfv5vhbQqb2bB" version="22.1.11" type="github">
  <diagram name="Page-1" id="e7e014a7-5840-1c2e-5031-d8a46d1fe8dd">
    <mxGraphModel dx="1195" dy="650" grid="1" gridSize="10" guides="1" tooltips="1" connect="1" arrows="1" fold="1" page="1" pageScale="1" pageWidth="1169" pageHeight="826" background="none" math="0" shadow="0">
      <root>
        <mxCell id="0" />
        <mxCell id="1" parent="0" />
        <mxCell id="2" value="VPN-клиент" style="swimlane;whiteSpace=wrap" parent="1" vertex="1">
          <mxGeometry x="164.5" y="128" width="280" height="570" as="geometry" />
        </mxCell>
        <mxCell id="DJCFupis5818W1g9IGd3-47" value="" style="edgeStyle=orthogonalEdgeStyle;rounded=0;orthogonalLoop=1;jettySize=auto;html=1;" edge="1" parent="2" source="5" target="7">
          <mxGeometry relative="1" as="geometry" />
        </mxCell>
        <mxCell id="5" value="" style="ellipse;shape=startState;fillColor=#000000;strokeColor=#ff0000;" parent="2" vertex="1">
          <mxGeometry x="100" y="40" width="30" height="30" as="geometry" />
        </mxCell>
        <mxCell id="DJCFupis5818W1g9IGd3-50" value="" style="edgeStyle=orthogonalEdgeStyle;rounded=0;orthogonalLoop=1;jettySize=auto;html=1;" edge="1" parent="2" source="7" target="8">
          <mxGeometry relative="1" as="geometry" />
        </mxCell>
        <mxCell id="7" value="Вход на сайт &#xa;комапнии" style="" parent="2" vertex="1">
          <mxGeometry x="60" y="110" width="110" height="50" as="geometry" />
        </mxCell>
        <mxCell id="DJCFupis5818W1g9IGd3-51" value="" style="edgeStyle=orthogonalEdgeStyle;rounded=0;orthogonalLoop=1;jettySize=auto;html=1;" edge="1" parent="2" source="8" target="10">
          <mxGeometry relative="1" as="geometry" />
        </mxCell>
        <mxCell id="8" value="Вход во&#xa;внутренний &#xa;IP-адрес" style="" parent="2" vertex="1">
          <mxGeometry x="60" y="220" width="110" height="50" as="geometry" />
        </mxCell>
        <mxCell id="10" value="Обращение к &#xa;провайдеру&#xa;внутреннег осервера" style="" parent="2" vertex="1">
          <mxGeometry x="40" y="315" width="150" height="70" as="geometry" />
        </mxCell>
        <mxCell id="3" value="локальный ISP" style="swimlane;whiteSpace=wrap" parent="1" vertex="1">
          <mxGeometry x="445" y="128" width="280" height="570" as="geometry" />
        </mxCell>
        <mxCell id="DJCFupis5818W1g9IGd3-49" value="" style="edgeStyle=orthogonalEdgeStyle;rounded=0;orthogonalLoop=1;jettySize=auto;html=1;" edge="1" parent="3" source="13" target="15">
          <mxGeometry relative="1" as="geometry" />
        </mxCell>
        <mxCell id="13" value="" style="ellipse;shape=startState;fillColor=#000000;strokeColor=#ff0000;" parent="3" vertex="1">
          <mxGeometry x="60" y="40" width="30" height="30" as="geometry" />
        </mxCell>
        <mxCell id="DJCFupis5818W1g9IGd3-53" value="" style="edgeStyle=orthogonalEdgeStyle;rounded=0;orthogonalLoop=1;jettySize=auto;html=1;" edge="1" parent="3" source="15" target="16">
          <mxGeometry relative="1" as="geometry" />
        </mxCell>
        <mxCell id="15" value="Поддерживает &#xa;подключению к&#xa;интернету" style="" parent="3" vertex="1">
          <mxGeometry x="20" y="110" width="110" height="50" as="geometry" />
        </mxCell>
        <mxCell id="DJCFupis5818W1g9IGd3-54" value="" style="edgeStyle=orthogonalEdgeStyle;rounded=0;orthogonalLoop=1;jettySize=auto;html=1;" edge="1" parent="3" source="16" target="18">
          <mxGeometry relative="1" as="geometry" />
        </mxCell>
        <mxCell id="16" value="Ожидание запроса&#xa;на локальное &#xa;подключение" style="" parent="3" vertex="1">
          <mxGeometry x="20" y="220" width="110" height="50" as="geometry" />
        </mxCell>
        <mxCell id="DJCFupis5818W1g9IGd3-46" style="edgeStyle=orthogonalEdgeStyle;rounded=0;orthogonalLoop=1;jettySize=auto;html=1;exitX=1;exitY=0.5;exitDx=0;exitDy=0;entryX=0;entryY=0.5;entryDx=0;entryDy=0;" edge="1" parent="3" source="18" target="21">
          <mxGeometry relative="1" as="geometry" />
        </mxCell>
        <mxCell id="18" value="Получение запроса&#xa;на подключение к&#xa;VPN от пользователя" style="" parent="3" vertex="1">
          <mxGeometry x="10" y="320" width="130" height="60" as="geometry" />
        </mxCell>
        <mxCell id="DJCFupis5818W1g9IGd3-55" style="edgeStyle=orthogonalEdgeStyle;rounded=0;orthogonalLoop=1;jettySize=auto;html=1;exitX=0.5;exitY=0;exitDx=0;exitDy=0;entryX=1;entryY=0.5;entryDx=0;entryDy=0;" edge="1" parent="3" source="21" target="15">
          <mxGeometry relative="1" as="geometry" />
        </mxCell>
        <mxCell id="DJCFupis5818W1g9IGd3-63" value="Нет" style="edgeLabel;html=1;align=center;verticalAlign=middle;resizable=0;points=[];" vertex="1" connectable="0" parent="DJCFupis5818W1g9IGd3-55">
          <mxGeometry x="-0.7407" y="-1" relative="1" as="geometry">
            <mxPoint x="-21" as="offset" />
          </mxGeometry>
        </mxCell>
        <mxCell id="21" value="Правильность &#xa;запроса" style="rhombus;fillColor=#ffffc0;strokeColor=#ff0000;" parent="3" vertex="1">
          <mxGeometry x="160" y="290" width="100" height="120" as="geometry" />
        </mxCell>
        <mxCell id="4" value="VPN сервер" style="swimlane;whiteSpace=wrap" parent="1" vertex="1">
          <mxGeometry x="725" y="128" width="280" height="570" as="geometry" />
        </mxCell>
        <mxCell id="38" value="" style="ellipse;shape=endState;fillColor=#000000;strokeColor=#ff0000" parent="4" vertex="1">
          <mxGeometry x="130" y="500" width="30" height="30" as="geometry" />
        </mxCell>
        <mxCell id="DJCFupis5818W1g9IGd3-59" style="edgeStyle=orthogonalEdgeStyle;rounded=0;orthogonalLoop=1;jettySize=auto;html=1;exitX=0.5;exitY=1;exitDx=0;exitDy=0;entryX=0.5;entryY=0;entryDx=0;entryDy=0;" edge="1" parent="4">
          <mxGeometry relative="1" as="geometry">
            <mxPoint x="144.8" y="415" as="sourcePoint" />
            <mxPoint x="144.8" y="500" as="targetPoint" />
          </mxGeometry>
        </mxCell>
        <mxCell id="DJCFupis5818W1g9IGd3-66" value="Да" style="edgeLabel;html=1;align=center;verticalAlign=middle;resizable=0;points=[];" vertex="1" connectable="0" parent="DJCFupis5818W1g9IGd3-59">
          <mxGeometry x="-0.3882" y="-3" relative="1" as="geometry">
            <mxPoint x="-12" as="offset" />
          </mxGeometry>
        </mxCell>
        <mxCell id="DJCFupis5818W1g9IGd3-60" style="edgeStyle=orthogonalEdgeStyle;rounded=0;orthogonalLoop=1;jettySize=auto;html=1;exitX=1;exitY=0.5;exitDx=0;exitDy=0;entryX=1;entryY=0.5;entryDx=0;entryDy=0;" edge="1" parent="4" source="DJCFupis5818W1g9IGd3-41" target="DJCFupis5818W1g9IGd3-43">
          <mxGeometry relative="1" as="geometry">
            <Array as="points">
              <mxPoint x="265" y="382" />
              <mxPoint x="265" y="266" />
            </Array>
          </mxGeometry>
        </mxCell>
        <mxCell id="DJCFupis5818W1g9IGd3-65" value="Нет" style="edgeLabel;html=1;align=center;verticalAlign=middle;resizable=0;points=[];" vertex="1" connectable="0" parent="DJCFupis5818W1g9IGd3-60">
          <mxGeometry x="-0.8816" y="-2" relative="1" as="geometry">
            <mxPoint x="15" y="-12" as="offset" />
          </mxGeometry>
        </mxCell>
        <mxCell id="DJCFupis5818W1g9IGd3-41" value="клиент выходит&#xa;из системы" style="rhombus;fillColor=#ffffc0;strokeColor=#ff0000;" vertex="1" parent="4">
          <mxGeometry x="85" y="332" width="120" height="100" as="geometry" />
        </mxCell>
        <mxCell id="DJCFupis5818W1g9IGd3-57" style="edgeStyle=orthogonalEdgeStyle;rounded=0;orthogonalLoop=1;jettySize=auto;html=1;" edge="1" parent="4" source="DJCFupis5818W1g9IGd3-42" target="DJCFupis5818W1g9IGd3-43">
          <mxGeometry relative="1" as="geometry" />
        </mxCell>
        <mxCell id="DJCFupis5818W1g9IGd3-42" value="Отправка информации&#xa;интернет-провайдеру&#xa;подключённой к локальной&#xa;сети компании" style="" vertex="1" parent="4">
          <mxGeometry x="50" y="110" width="190" height="90" as="geometry" />
        </mxCell>
        <mxCell id="DJCFupis5818W1g9IGd3-58" style="edgeStyle=orthogonalEdgeStyle;rounded=0;orthogonalLoop=1;jettySize=auto;html=1;entryX=0.5;entryY=0;entryDx=0;entryDy=0;" edge="1" parent="4" source="DJCFupis5818W1g9IGd3-43" target="DJCFupis5818W1g9IGd3-41">
          <mxGeometry relative="1" as="geometry" />
        </mxCell>
        <mxCell id="DJCFupis5818W1g9IGd3-43" value="Поддержка стабильного&#xa;и безопасного&#xa;соединения с&#xa;пользователем" style="" vertex="1" parent="4">
          <mxGeometry x="70" y="232" width="150" height="68" as="geometry" />
        </mxCell>
        <mxCell id="DJCFupis5818W1g9IGd3-52" value="" style="edgeStyle=orthogonalEdgeStyle;rounded=0;orthogonalLoop=1;jettySize=auto;html=1;" edge="1" parent="1" source="10" target="18">
          <mxGeometry relative="1" as="geometry" />
        </mxCell>
        <mxCell id="DJCFupis5818W1g9IGd3-56" style="edgeStyle=orthogonalEdgeStyle;rounded=0;orthogonalLoop=1;jettySize=auto;html=1;entryX=0;entryY=0.5;entryDx=0;entryDy=0;" edge="1" parent="1" source="21" target="DJCFupis5818W1g9IGd3-42">
          <mxGeometry relative="1" as="geometry">
            <Array as="points">
              <mxPoint x="750" y="478" />
              <mxPoint x="750" y="283" />
            </Array>
          </mxGeometry>
        </mxCell>
        <mxCell id="DJCFupis5818W1g9IGd3-64" value="Да" style="edgeLabel;html=1;align=center;verticalAlign=middle;resizable=0;points=[];" vertex="1" connectable="0" parent="DJCFupis5818W1g9IGd3-56">
          <mxGeometry x="-0.9052" y="-3" relative="1" as="geometry">
            <mxPoint x="-6" y="9" as="offset" />
          </mxGeometry>
        </mxCell>
      </root>
    </mxGraphModel>
  </diagram>
</mxfile>
